<?xml version="1.0" encoding="UTF-8"?>
<svg width="85px" height="168px" viewBox="0 0 85 168" version="1.1" xmlns="http://www.w3.org/2000/svg" xmlns:xlink="http://www.w3.org/1999/xlink">
    <!-- Generator: Sketch 51.3 (57544) - http://www.bohemiancoding.com/sketch -->
    <title>Fichier 1 Copy</title>
    <desc>Created with Sketch.</desc>
    <defs></defs>
    <g id="Page-1" stroke="none" stroke-width="1" fill="none" fill-rule="evenodd">
        <g id="home" transform="translate(-215.000000, -321.000000)" fill-rule="nonzero">
            <g id="Fichier-1-Copy" transform="translate(215.000000, 321.000000)">
                <path d="M70.9852854,110.101695 L69.7191011,115.54561 L84.9776948,121.491525 C85.1918175,119.391647 83.8428331,117.463898 81.8551556,117.0293 L79.923688,116.605389 C78.6467734,116.103388 75.2559748,113.169475 76.1787871,112.143163 L70.9852854,110.101695 Z" id="Shape" fill="#FFFFFF"></path>
                <path d="M37.247191,99.8840905 L66.881315,91.6495353 L69.7203807,112.949153 L78.3146067,111.59834 L76.3008508,83.9336922 C76.1691702,82.1197078 75.2777843,80.4404551 73.8388838,79.2956728 C72.3999832,78.1508904 70.5422831,77.6429835 68.7080007,77.892857 L37.6763521,82.1181997 L37.247191,99.8840905 Z" id="Shape" fill="#4D5CC4"></path>
                <path d="M39.318643,162.305085 L36.2921348,167.252795 L53.4831461,168 C53.0634867,166.079717 51.0999958,164.766335 48.9545107,164.97079 L46.8737864,165.16264 C46.2131038,165.119292 45.6181552,164.783893 45.2825929,164.265612 C44.9470305,163.747332 44.913767,163.11245 45.1936293,162.567616 L39.318643,162.305085 Z" id="Shape" fill="#FFFFFF"></path>
                <path d="M13.3707865,90.1694915 L13.3707865,92.2785459 C13.3707865,98.7905546 18.670997,104.069581 25.2091379,104.069581 L43.4000429,127.017841 L37.4424666,162.751561 L47.2291297,163.254237 L56.0064059,126.241971 C56.5998064,124.186844 56.4163477,121.986364 55.4907409,120.056869 L41.227667,90.191347 L13.3707865,90.1694915 Z" id="Shape" fill="#4B78FF"></path>
                <path d="M37.3081896,43.5334822 L20.7138328,43.5334822 C15.6772789,43.5258623 11.0269933,46.2050698 8.54463773,50.5446211 L1.90689498,72.7283026 C1.26215887,74.9091353 0.941657656,77.171336 0.95548519,79.443659 L0.95505618,106.305085 L9.91643789,106.305085 L9.91643789,82.6205813 L12.9697996,65.914352 L12.9697996,92.9510562 L42.2864967,92.9510562 L38.6689269,73.3965518 C42.095523,70.6457312 43.7505273,66.2740739 42.9945226,61.9705864 L42.4745661,59.0127622 L54.0574271,71.2493905 C55.4739885,72.703141 57.51144,73.3914539 59.5299012,73.0981582 C61.5483624,72.8048624 63.3002246,71.5659372 64.2352994,69.7704784 L76.4044944,46.425577 L70.3198969,42.7118644 L59.5888794,60.0096585 L47.2537408,47.6525263 C44.6291675,45.0163436 41.0465774,43.53258 37.3081896,43.5334822 Z" id="Shape" fill="#00D7FF"></path>
                <path d="M46.6445022,22.4309867 C46.7211274,17.8406698 42.5943122,12.4726993 36.6284917,10.8957905 C30.8715646,9.37454646 24.7841584,11.7525264 21.6427887,16.7497945 L21.1283051,17.5706512 C19.0817801,20.829616 18.5553742,24.7998675 19.6833724,28.4686034 L23.6240978,38.0920677 L23.8868129,43.0064069 L29.7760081,48.4067797 L35.2492378,43.0064069 L34.9974693,37.6060341 L40.2298769,37.6060341 C43.8801165,37.5296362 46.7985737,34.5876366 46.7977526,30.9851771 L46.7977526,27.8637617 L46.6445022,22.4309867 Z" id="Shape" fill="#FFB700"></path>
                <path d="M26.7113114,25.893456 C26.7113114,25.893456 46.7977528,21.0132584 46.7977528,18.6385194 C46.732978,13.827997 43.9149617,9.45770748 39.4996791,7.32038253 C36.205671,5.68408981 32.4164916,5.26622103 28.8315469,6.14390632 C24.5710021,7.17828778 20.9684478,9.9447089 18.9353681,13.7432361 C16.9022884,17.5417633 16.6334574,22.0084881 18.1968921,26.0132823 C19.416155,29.4861166 20.9394211,32.8500408 22.7498188,36.0677966 L26.7113114,25.893456 Z" id="Shape" fill="#9013FE"></path>
                <ellipse id="Oval" fill="#FFB700" cx="26.2640449" cy="26.1016949" rx="3.34269663" ry="3.3220339"></ellipse>
                <path d="M41.0620901,30.3728814 C41.1268904,31.3690187 40.596422,32.3165963 39.6848666,32.8330207 C38.7733112,33.3494451 37.6311832,33.3494451 36.7196278,32.8330207 C35.8080724,32.3165963 35.277604,31.3690187 35.3424043,30.3728814" id="Shape" fill="#FFFFFF"></path>
                <path d="M10.0059137,118.643676 C10.8131672,118.631816 11.4607775,118.027535 11.4606742,117.286249 L11.4606742,111.324427 L7.64044944,109.152542 L8.49201656,117.286249 C8.49190182,117.651977 8.65252417,118.002275 8.9375029,118.257799 C9.22248162,118.513324 9.60770252,118.652454 10.0059137,118.643676 Z" id="Shape" fill="#FFB700"></path>
                <path d="M7.11323213,119.593176 C7.48573148,119.596104 7.84369527,119.453561 8.10605761,119.197827 C8.36841996,118.942093 8.51298417,118.594805 8.50701168,118.23461 L8.59550562,109.152542 L5.80794651,109.152542 L5.73051432,118.23461 C5.72458495,118.592942 5.86764193,118.938579 6.12759727,119.193994 C6.3875526,119.449409 6.74264704,119.593222 7.11323213,119.593176 Z" id="Shape" fill="#FFB700"></path>
                <path d="M4.30350616,118.644068 C5.09338078,118.637986 5.73036236,118.019941 5.73033708,117.259656 L5.73033708,109.152542 L2.86516854,109.152542 L2.86516854,117.259656 C2.86516854,118.024246 3.50913423,118.644068 4.30350616,118.644068 Z" id="Shape" fill="#FFB700"></path>
                <path d="M1.43258427,114.847458 C2.22377871,114.847458 2.86516854,114.223754 2.86516854,113.454377 L2.86516854,109.152542 L0,109.152542 L0,113.454377 C9.68933745e-17,114.223754 0.641389825,114.847458 1.43258427,114.847458 Z" id="Shape" fill="#FFB700"></path>
                <path d="M0,111.805595 L0,108.969573 L1.12469815,106.488054 L8.60394085,106.305085 L8.72765765,106.41944 C10.4431788,108.132231 11.3595032,110.507207 11.2469815,112.949153 L11.4606742,112.949153 L0,111.805595 Z" id="Shape" fill="#FFB700"></path>
                <path d="M70.6741573,42.9764905 L71.4571143,37.7386564 L71.4571143,33.4959015 C71.4571143,32.8195114 72.0261096,32.2711888 72.7280009,32.2711888 C73.0792855,32.2705269 73.4151868,32.4100123 73.6559453,32.6565243 C73.8967039,32.9030363 74.0208435,33.2345855 73.9988875,33.5724461 L73.6698187,38.2744683 L82.1348315,43.6653914 L76.7449104,46.5084746 L70.6741573,42.9764905 Z" id="Shape" fill="#FFB700"></path>
                <rect id="Rectangle-path" fill="#FFFFFF" transform="translate(78.314607, 35.593220) rotate(180.000000) translate(-78.314607, -35.593220) " x="73.5393258" y="27.5254237" width="9.5505618" height="16.1355932" rx="0.7505"></rect>
                <ellipse id="Oval" fill="#000000" cx="78.3146067" cy="41.7627119" rx="1" ry="1"></ellipse>
                <rect id="Rectangle-path" fill="#000000" transform="translate(78.314607, 35.118644) rotate(180.000000) translate(-78.314607, -35.118644) " x="73.5393258" y="29.4237288" width="9.5505618" height="11.3898305"></rect>
                <ellipse id="Oval-Copy" fill="#D0021B" cx="78.3146067" cy="36.0677966" rx="1.91011236" ry="1.89830508"></ellipse>
                <ellipse id="Oval" fill="#9013FE" cx="25.7865169" cy="6.6440678" rx="6.68539326" ry="6.6440678"></ellipse>
            </g>
        </g>
    </g>
</svg>