<?xml version="1.0" encoding="UTF-8"?>
<svg width="83px" height="166px" viewBox="0 0 83 166" version="1.1" xmlns="http://www.w3.org/2000/svg" xmlns:xlink="http://www.w3.org/1999/xlink">
    <!-- Generator: Sketch 51.3 (57544) - http://www.bohemiancoding.com/sketch -->
    <title>Fichier 2 Copy</title>
    <desc>Created with Sketch.</desc>
    <defs></defs>
    <g id="Page-1" stroke="none" stroke-width="1" fill="none" fill-rule="evenodd">
        <g id="home" transform="translate(-55.000000, -320.000000)" fill-rule="nonzero">
            <g id="Fichier-2-Copy" transform="translate(96.500000, 403.000000) scale(-1, 1) translate(-96.500000, -403.000000) translate(55.000000, 320.000000)">
                <path d="M66.0891116,159.429287 L62.9655172,166 L83,165.826783 C82.365848,163.379963 79.9931915,161.820187 77.5194076,162.223861 L75.1166427,162.616487 C74.332377,162.624266 73.5961568,162.23591 73.1547579,161.581594 C72.7133589,160.927279 72.6251991,160.093599 72.9198291,159.36 L66.0891116,159.429287 Z" id="Shape" fill="#9013FE"></path>
                <path d="M58.2697443,87.2685714 L73.8759898,109.590048 C76.3311814,112.025418 77.5600888,115.443845 77.2201853,118.892529 L73.2851819,159.36 L63.4866892,159.36 L65.0027245,121.735886 L42.9310345,98.3173665 L42.9310345,91.6007737 L58.2697443,87.2685714 Z" id="Shape" fill="#00D7FF"></path>
                <path d="M19.6208485,123.314286 L25.7586207,124.355557 L18.5702388,141.337143 L17.8292825,140.694656 C16.0031752,139.099348 15.6871297,136.374938 17.0993853,134.402718 L18.4707074,132.486336 C18.8275168,131.807529 18.81805,130.994162 18.4455386,130.323873 C18.0730271,129.653583 17.3878344,129.216993 16.6238462,129.163129 L19.6208485,123.314286 Z" id="Shape" fill="#9013FE"></path>
                <path d="M27.5619246,82.5257143 L4.65915644,90.3413686 C2.58445135,91.3973992 1.02989069,93.269917 0.359841677,95.52003 C-0.310207336,97.770143 -0.0368371803,100.200032 1.11587801,102.240165 L17.8821797,131.851429 L21.5819436,123.266651 L12.9640646,101.007305 L42.9310345,98.3040613 L42.9310345,91.5176755 L27.5619246,82.5257143 Z" id="Shape" fill="#00D7FF"></path>
                <path d="M71.0436861,49.901695 C70.4004304,43.9136559 65.4892388,39.2910617 59.4794607,39.017021 C56.803073,38.8495644 29.8273148,38.8495644 27.1397754,39.017021 C21.1020998,39.331919 16.193933,44.0037862 15.5755501,50.0244964 L12.4977042,70.9342342 C12.1133543,73.5283361 12.9021383,76.1591176 14.649966,78.1125372 L21.262874,85.4917879 L24.4745393,58.9108559 L34.957058,92.0114286 L52.420488,92.0114286 L62.9253099,58.9108559 L65.7578203,85.6257532 L72.2480606,78.1460285 C73.9510626,76.1880396 74.7057868,73.5783407 74.3111095,71.0123806 L71.0436861,49.901695 Z" id="Shape" fill="#9013FE"></path>
                <path d="M61.7742149,94.8571429 L25.0193501,94.8571429 C23.1940711,94.8555277 21.6644202,93.4623381 21.4744076,91.6284473 L19.0998587,68.4818834 C18.9946919,67.466882 19.3204492,66.4544269 19.996261,65.6958608 C20.6720729,64.9372947 21.6345663,64.503751 22.6448013,64.5028571 L64.2050326,64.5028571 C65.2093716,64.5133425 66.1628059,64.9510382 66.8311511,65.7084366 C67.4994963,66.4658349 67.8208257,67.472758 67.7162138,68.4818834 L65.3191574,91.6398159 C65.1238014,93.4692018 63.5956246,94.8561481 61.7742149,94.8571429 Z" id="Shape" fill="#E6E6E6"></path>
                <ellipse id="Oval" fill="#FFFFFF" cx="43.408046" cy="80.1542857" rx="3.33908046" ry="3.32"></ellipse>
                <path d="M59.9451689,16.1558633 C60.0243085,11.4312684 55.8072968,5.89324084 49.6117944,4.2663756 C43.6716025,2.69258735 37.3869569,5.14218474 34.1456496,10.2946913 L33.6142835,11.1415527 C31.4819973,14.4914048 30.917587,18.5843657 32.0654079,22.3736085 L36.135446,32.2908007 L36.135446,39.3554073 L41.8561107,43.6342857 L47.7915829,39.3776931 L47.8933338,31.7559409 L53.3200513,31.7559409 C57.0882601,31.6831042 60.1041727,28.6511566 60.1034481,24.9364784 L60.1034481,21.7607483 L59.9451689,16.1558633 Z" id="Shape" fill="#FF63BE"></path>
                <path d="M54.3793103,24.6628571 C54.3793103,26.2345017 53.0979184,27.5085714 51.5172414,27.5085714 C49.9365643,27.5085714 48.6551724,26.2345017 48.6551724,24.6628571" id="Shape" fill="#FFFFFF"></path>
                <path d="M45.0781985,11.1257404 C45.0781985,11.1257404 55.3823252,19.4566349 59.1494253,11.4576486 C59.1494253,11.4576486 59.1494253,7.62964128 54.5845864,3.41440782 C50.9916952,0.359082313 46.1223766,-0.733370458 41.5659317,0.493616126 C37.5258311,1.49675354 34.1097085,4.18019049 32.1821054,7.86481115 C30.2545024,11.5494318 30.0001427,15.8821358 31.4833991,19.7664158 C32.80917,23.4147605 34.4168743,26.9547079 36.2919916,30.3542857 L36.6576219,20.9612852 L41.7321273,20.1425784 L42.2861126,22.056582 L44.7236479,22.056582 L45.0781985,11.1257404 Z" id="Shape" fill="#FFB700"></path>
                <ellipse id="Oval" fill="#FF63BE" cx="38.637931" cy="20.8685714" rx="2.38505747" ry="2.84571429"></ellipse>
            </g>
        </g>
    </g>
</svg>