<?xml version="1.0" standalone="no"?>
<!DOCTYPE svg PUBLIC "-//W3C//DTD SVG 20010904//EN"
 "http://www.w3.org/TR/2001/REC-SVG-20010904/DTD/svg10.dtd">
<svg version="1.0" xmlns="http://www.w3.org/2000/svg"
 width="206.000000pt" height="206.000000pt" viewBox="0 0 206.000000 206.000000"
 preserveAspectRatio="xMidYMid meet">
<metadata>
Created by potrace 1.11, written by Peter Selinger 2001-2013
</metadata>
<g transform="translate(0.000000,206.000000) scale(0.100000,-0.100000)"
fill="#000000" stroke="none">
<path d="M2 1353 l3 -708 60 1 c33 1 214 2 403 3 l343 1 -5 28 c-3 15 -12 52
-21 82 -9 30 -17 60 -18 65 -2 6 -6 16 -10 23 -5 6 -6 12 -2 12 3 0 -1 16 -9
35 -9 20 -15 38 -15 40 0 3 -2 18 -6 34 -5 26 -11 29 -60 35 -53 6 -126 33
-133 49 -2 4 -9 7 -15 7 -15 1 -87 67 -87 80 0 6 -4 10 -8 10 -12 0 -50 87
-60 135 -43 213 109 412 323 421 72 3 155 -11 166 -29 3 -5 8 -8 10 -6 15 10
129 -87 129 -110 0 -5 4 -11 8 -13 16 -7 52 -99 58 -150 3 -29 9 -55 13 -59 8
-7 125 -37 167 -43 11 -2 26 -6 31 -9 6 -4 28 -9 49 -13 20 -3 48 -10 61 -15
17 -6 25 -5 29 5 3 7 4 188 2 402 l-3 389 -703 3 -702 2 2 -707z"/>
<path d="M735 1334 c-32 -29 -31 -57 1 -141 14 -38 27 -72 28 -78 2 -5 8 -23
14 -38 7 -16 12 -34 12 -42 0 -8 4 -16 9 -19 5 -3 12 -18 16 -33 3 -16 13 -41
20 -58 7 -16 16 -42 19 -57 3 -15 11 -40 18 -55 6 -15 12 -30 13 -33 1 -3 8
-21 16 -40 9 -19 35 -91 59 -160 23 -69 47 -131 53 -138 5 -6 6 -12 1 -12 -4
0 5 -13 20 -29 29 -30 64 -33 93 -10 11 9 31 59 37 92 2 7 8 32 15 57 8 25 15
52 16 60 2 8 4 15 5 15 2 0 6 19 13 60 17 99 33 136 62 141 72 12 360 106 379
124 29 28 29 79 -2 106 -14 13 -32 24 -41 24 -10 0 -22 5 -29 12 -7 7 -12 9
-12 6 0 -7 -44 7 -190 62 -47 18 -123 45 -170 60 -47 16 -115 40 -152 54 -38
14 -68 24 -68 21 0 -3 -10 1 -22 9 -26 15 -151 57 -186 61 -12 1 -33 -8 -47
-21z m222 -195 c42 -19 65 -26 133 -44 8 -2 16 -4 18 -5 1 -2 5 -3 10 -4 6 -1
147 -50 182 -64 20 -7 28 -9 42 -11 15 -1 -3 -21 -23 -24 -8 -2 -18 -5 -24 -8
-5 -4 -34 -12 -62 -19 -82 -19 -122 -62 -138 -149 -12 -63 -15 -75 -24 -84 -7
-7 -12 -6 -15 4 -3 8 -17 46 -31 84 -14 39 -28 77 -30 85 -10 37 -73 207 -83
227 -22 40 -20 40 45 12z"/>
</g>
</svg>
