<?xml version="1.0" encoding="UTF-8"?>
<svg width="42px" height="42px" viewBox="0 0 42 42" version="1.1" xmlns="http://www.w3.org/2000/svg" xmlns:xlink="http://www.w3.org/1999/xlink">
    <!-- Generator: Sketch 51.3 (57544) - http://www.bohemiancoding.com/sketch -->
    <title>picto</title>
    <desc>Created with Sketch.</desc>
    <defs></defs>
    <g id="Symbols" stroke="none" stroke-width="1" fill="none" fill-rule="evenodd">
        <g id="menu_mobile" transform="translate(-135.000000, 0.000000)">
            <g id="picto" transform="translate(156.000000, 21.000000) scale(-1, 1) translate(-156.000000, -21.000000) translate(135.000000, 0.000000)">
                <g>
                    <path d="M16.1394471,17.9146558 C15.8627412,17.3238288 15.9969765,16.6227519 16.4738,16.1708481 C16.9485647,15.7193481 17.6654471,15.6099058 18.2575647,15.8974442 L32.9410941,23.0366365 L32.9410941,0.403886538 L-8.23529412e-05,0.403886538 L-8.23529412e-05,32.7115788 L23.0636824,32.7115788 L16.1394471,17.9146558 Z" id="Fill-1" fill="#000000"></path>
                    <path d="M16.1394471,17.9146558 C15.8627412,17.3238288 15.9969765,16.6227519 16.4738,16.1708481 C16.9485647,15.7193481 17.6654471,15.6099058 18.2575647,15.8974442 L26.9729765,20.1350019 C27.3699176,19.013925 27.5881529,17.8112712 27.5881529,16.5577327 C27.5881529,10.5355788 22.6107412,5.65388654 16.4705059,5.65388654 C10.3306824,5.65388654 5.35285882,10.5355788 5.35285882,16.5577327 C5.35285882,22.5794827 10.3306824,27.4615788 16.4705059,27.4615788 C17.8149176,27.4615788 19.1037412,27.2273481 20.2966235,26.7984635 L16.1394471,17.9146558 Z" id="Fill-4" fill="#F8E71C"></path>
                    <path d="M18.5915471,18.313575 L29.5556059,41.7439212 L31.2430176,31.8694788 C31.3459588,31.2661327 31.8507824,30.792825 32.4704882,30.7189212 L41.8245471,29.6091519 L18.5915471,18.313575 Z" id="Fill-6" fill="#EA3434"></path>
                </g>
            </g>
        </g>
    </g>
</svg>