<?xml version="1.0" encoding="UTF-8"?>
<svg width="73px" height="97px" viewBox="0 0 73 97" version="1.1" xmlns="http://www.w3.org/2000/svg" xmlns:xlink="http://www.w3.org/1999/xlink">
    <!-- Generator: Sketch 51.3 (57544) - http://www.bohemiancoding.com/sketch -->
    <title>laptop</title>
    <desc>Created with Sketch.</desc>
    <defs></defs>
    <g id="Page-1" stroke="none" stroke-width="1" fill="none" fill-rule="evenodd">
        <g id="restez-informé" transform="translate(-140.000000, -109.000000)" fill-rule="nonzero">
            <g id="laptop" transform="translate(139.000000, 109.000000)">
                <path d="M15.91,44.69 C17.84,38.38 20.63,35.69 25.81,35.38 C28.1,35.24 47.28,35.24 49.57,35.38 C54.75,35.7 57.14,38.95 59.09,45.38 L63.46,63 C63.7529985,64.9842572 63.1483634,66.9960428 61.81,68.49 L55.91,75.07 L53.16,51.84 L48.09,79.59 L25.35,79.59 L21.58,51.84 L17.85,74.95 L12.1,68.42 C10.7730851,66.9167869 10.1831446,64.9014623 10.49,62.92 L15.91,44.69 Z" id="Shape" fill="#000000"></path>
                <path d="M52.88,15.42 C52.95,11.42 49.35,6.63 44.16,5.24 C39.148142,3.89521074 33.8469247,5.99132422 31.11,10.4 L30.66,11.13 C28.8793587,14.0037247 28.4203774,17.5043677 29.4,20.74 L32.83,29.24 L32.83,35.24 L37.69,39 L42.63,35.33 L42.74,28.82 L47.29,28.82 C50.4879345,28.7489726 53.0336523,26.1185462 53,22.92 L53,20.21 L52.88,15.42 Z" id="Shape" fill="#FF63BE"></path>
                <path d="M48.1,22.52 C48.1,23.9393718 46.9493718,25.09 45.53,25.09 C44.1106282,25.09 42.96,23.9393718 42.96,22.52" id="Shape" fill="#FFFFFF"></path>
                <path d="M2,79.53 C3.56406119,77.0245908 6.56482256,75.8129779 9.43,76.53 L22.3,79.74 L51.78,79.74 L64.62,76.56 C67.4847166,75.84957 70.4816933,77.0596549 72.05,79.56 C73.0834818,81.277076 73.3314303,83.3547685 72.7310437,85.2668277 C72.1306571,87.178887 70.7395245,88.741908 68.91,89.56 L46,96.74 L21.74,96.74 L5.17,89.57 C3.32366137,88.7591379 1.91670404,87.1914175 1.30955,85.2684439 C0.702395964,83.3454702 0.954033386,81.2540701 2,79.53 Z" id="Shape" fill="#00D7FF"></path>
                <path d="M29.52,94.76 L28.08,96.36 L11.38,96.88 C11.832866,94.8420724 13.7574141,93.4797519 15.83,93.73 L17.83,93.97 C20.1767648,93.8500913 22.3728621,92.7773267 23.91,91 L29.52,94.76 Z" id="Shape" fill="#000000"></path>
                <path d="M54.77,93.8 C55.2523837,93.9098162 55.7452844,93.9668183 56.24,93.97 L58.24,93.73 C60.3125859,93.4797519 62.237134,94.8420724 62.69,96.88 L46.38,96.37 L54.77,93.8 Z" id="Shape" fill="#000000"></path>
                <path d="M21.48,87.75 L52.64,87.75 C54.1899076,87.7572569 55.4901909,86.5826677 55.64,85.04 L57.64,65.61 C57.7372848,64.757294 57.4647077,63.9037526 56.891211,63.2652596 C56.3177143,62.6267666 55.4982198,62.2644684 54.64,62.27 L19.42,62.27 C18.5617802,62.2644684 17.7422857,62.6267666 17.168789,63.2652596 C16.5952923,63.9037526 16.3227152,64.757294 16.42,65.61 L18.48,85 C18.6103196,86.5585091 19.9160613,87.755439 21.48,87.75 Z" id="Shape" fill="#823DD9"></path>
                <circle id="Oval" fill="#FFFFFF" cx="37.04" cy="75.01" r="2.65"></circle>
                <path d="M38.06,17 C38.06,17 45.53,19.49 51.85,12.37 L53.68,10.37 C51.9386097,3.34298514 45.0140531,-1.10224663 37.9,0.24 C34.0626856,0.959836314 30.7177859,3.28952907 28.712161,6.63924765 C26.7065361,9.98896624 26.2324749,14.0375572 27.41,17.76 L31.61,26.22 L36.38,19.64 L38.06,17 Z" id="Shape" fill="#823DD9"></path>
                <circle id="Oval" fill="#FF63BE" cx="36.97" cy="18.95" r="2.94"></circle>
            </g>
        </g>
    </g>
</svg>